<?xml version="1.0" encoding="UTF-8" standalone="no"?>
<!-- Created with Inkscape (http://www.inkscape.org/) -->

<svg
   width="400"
   height="400"
   viewBox="0 0 105.83333 105.83333"
   version="1.1"
   id="svg1"
   xml:space="preserve"
   sodipodi:docname="drawing-1.svg"
   inkscape:version="1.3 (0e150ed6c4, 2023-07-21)"
   xmlns:inkscape="http://www.inkscape.org/namespaces/inkscape"
   xmlns:sodipodi="http://sodipodi.sourceforge.net/DTD/sodipodi-0.dtd"
   xmlns="http://www.w3.org/2000/svg"
   xmlns:svg="http://www.w3.org/2000/svg"><sodipodi:namedview
     id="namedview1"
     pagecolor="#505050"
     bordercolor="#eeeeee"
     borderopacity="1"
     inkscape:showpageshadow="0"
     inkscape:pageopacity="0"
     inkscape:pagecheckerboard="0"
     inkscape:deskcolor="#d1d1d1"
     inkscape:document-units="mm"
     inkscape:zoom="1.4142136"
     inkscape:cx="186.32264"
     inkscape:cy="236.52722"
     inkscape:window-width="1920"
     inkscape:window-height="991"
     inkscape:window-x="-9"
     inkscape:window-y="-9"
     inkscape:window-maximized="1"
     inkscape:current-layer="layer2"
     showguides="true" /><defs
     id="defs1"><inkscape:path-effect
       effect="fillet_chamfer"
       id="path-effect6"
       is_visible="true"
       lpeversion="1"
       nodesatellites_param="F,0,1,1,0,0,0,1 @ F,0,1,1,0,0.6239985,0,1 @ F,0,1,1,0,0.6239985,0,1 @ F,0,1,1,0,0.6239985,0,1 @ F,0,1,1,0,0.6239985,0,1 @ F,0,1,1,0,0.6239985,0,1 @ F,0,1,1,0,0.6239985,0,1 @ F,0,1,1,0,0.6239985,0,1 @ F,0,0,1,0,0.6239985,0,1 @ F,0,1,1,0,0.6239985,0,1 @ F,0,0,1,0,0,0,1 @ F,0,0,1,0,0,0,1 @ F,0,0,1,0,0,0,1 @ F,0,0,1,0,0,0,1 @ F,0,0,1,0,0,0,1 @ F,0,0,1,0,0,0,1 @ F,0,0,1,0,0,0,1 @ F,0,0,1,0,0,0,1 @ F,0,0,1,0,0,0,1 @ F,0,0,1,0,0,0,1"
       radius="0"
       unit="px"
       method="auto"
       mode="F"
       chamfer_steps="1"
       flexible="false"
       use_knot_distance="true"
       apply_no_radius="true"
       apply_with_radius="true"
       only_selected="false"
       hide_knots="false" /><inkscape:path-effect
       effect="fillet_chamfer"
       id="path-effect5"
       is_visible="true"
       lpeversion="1"
       nodesatellites_param="F,0,1,1,0,0,0,1 @ F,0,1,1,0,1.2354359,0,1 @ F,0,1,1,0,1.2354359,0,1 @ F,0,1,1,0,1.2354359,0,1 @ F,0,1,1,0,1.2354359,0,1 @ F,0,1,1,0,1.2354359,0,1 @ F,0,1,1,0,1.2354359,0,1 @ F,0,1,1,0,1.2354359,0,1 @ F,0,1,1,0,1.2354359,0,1 @ F,0,1,1,0,1.2354359,0,1 @ F,0,1,1,0,1.2354359,0,1 @ F,0,1,1,0,1.2354359,0,1 @ F,0,0,1,0,1.2354359,0,1 @ F,0,1,1,0,0,0,1"
       radius="0"
       unit="px"
       method="auto"
       mode="F"
       chamfer_steps="1"
       flexible="false"
       use_knot_distance="true"
       apply_no_radius="true"
       apply_with_radius="true"
       only_selected="false"
       hide_knots="false" /><inkscape:path-effect
       effect="fillet_chamfer"
       id="path-effect4"
       is_visible="true"
       lpeversion="1"
       nodesatellites_param="F,0,1,1,0,0,0,1 @ F,0,1,1,0,0.67832667,0,1 @ F,0,1,1,0,0.67832667,0,1 @ F,0,1,1,0,0.67832667,0,1 @ F,0,1,1,0,0.67832667,0,1 @ F,0,1,1,0,0.67832667,0,1 @ F,0,1,1,0,0.67832667,0,1 @ F,0,1,1,0,0.67832667,0,1 @ F,0,1,1,0,0.67832667,0,1 @ F,0,1,1,0,0.67832667,0,1 @ F,0,1,1,0,0.67832667,0,1 @ F,0,1,1,0,0.67832667,0,1 @ F,0,1,1,0,0.67832667,0,1 @ F,0,1,1,0,0.67832667,0,1 @ F,0,1,1,0,0.67832667,0,1 @ F,0,1,1,0,0.67832667,0,1 @ F,0,1,1,0,0.67832667,0,1 @ F,0,1,1,0,0.67832667,0,1 @ F,0,1,1,0,0.67832667,0,1 @ F,0,1,1,0,0.67832667,0,1 @ F,0,1,1,0,0.67832667,0,1 @ F,0,1,1,0,0.67832667,0,1 @ F,0,1,1,0,0.67832667,0,1 @ F,0,0,1,0,0.67832667,0,1 @ F,0,1,1,0,0,0,1"
       radius="0"
       unit="px"
       method="auto"
       mode="F"
       chamfer_steps="1"
       flexible="false"
       use_knot_distance="true"
       apply_no_radius="true"
       apply_with_radius="true"
       only_selected="false"
       hide_knots="false" /><inkscape:path-effect
       effect="fillet_chamfer"
       id="path-effect3"
       is_visible="true"
       lpeversion="1"
       nodesatellites_param="F,0,0,1,0,0,0,1 @ F,0,0,1,0,0.47183803,0,1 @ F,0,0,1,0,0.47183803,0,1 @ F,0,0,1,0,0.47183803,0,1 @ F,0,0,1,0,0.47183803,0,1 @ F,0,0,1,0,0.47183803,0,1 @ F,0,0,1,0,0.47183803,0,1 @ F,0,0,1,0,0.47183803,0,1 @ F,0,0,1,0,0.47183803,0,1 @ F,0,0,1,0,0.47183803,0,1 @ F,0,0,1,0,0.47183803,0,1 @ F,0,0,1,0,0.47183803,0,1 @ F,0,0,1,0,0.47183803,0,1 @ F,0,0,1,0,1.8108382,0,1 @ F,0,0,1,0,1.8108382,0,1 @ F,0,0,1,0,0.47183803,0,1 @ F,0,0,1,0,2.1917515,0,1 @ F,0,1,1,0,2.1917515,0,1 @ F,0,0,1,0,0.47183803,0,1 @ F,0,0,1,0,0.47183803,0,1 @ F,0,0,1,0,0.47183803,0,1 @ F,0,0,1,0,0.47183803,0,1 @ F,0,0,1,0,0.47183803,0,1 @ F,0,0,1,0,0,0,1"
       radius="0"
       unit="px"
       method="auto"
       mode="F"
       chamfer_steps="1"
       flexible="false"
       use_knot_distance="true"
       apply_no_radius="true"
       apply_with_radius="true"
       only_selected="false"
       hide_knots="false" /><inkscape:path-effect
       effect="fillet_chamfer"
       id="path-effect2"
       is_visible="true"
       lpeversion="1"
       nodesatellites_param="F,0,1,1,0,0,0,1 @ F,0,1,1,0,1.4389565,0,1 @ F,0,1,1,0,1.4389565,0,1 @ F,0,1,1,0,1.4389565,0,1 @ F,0,1,1,0,1.4389565,0,1 @ F,0,1,1,0,1.4389565,0,1 @ F,0,1,1,0,1.4389565,0,1 @ F,0,0,1,0,1.4389565,0,1 @ F,0,1,1,0,1.4389565,0,1 @ F,0,1,1,0,0,0,1"
       radius="0"
       unit="px"
       method="auto"
       mode="F"
       chamfer_steps="1"
       flexible="false"
       use_knot_distance="true"
       apply_no_radius="true"
       apply_with_radius="true"
       only_selected="false"
       hide_knots="false" /></defs><g
     inkscape:label="Chart"
     inkscape:groupmode="layer"
     id="layer1"><g
       id="g34"
       inkscape:label="Text"><text
         xml:space="preserve"
         style="font-size:6.88348px;line-height:0.95;font-family:sans-serif;text-align:center;text-anchor:middle;fill:#77933c;fill-opacity:1;stroke-width:0.172087"
         x="73.403755"
         y="72.321083"
         id="text5"
         inkscape:label="6Text"><tspan
           sodipodi:role="line"
           id="tspan5"
           style="fill:#77933c;fill-opacity:1;stroke-width:0.172087"
           x="73.403755"
           y="72.321083">6: <tspan
   style="font-style:normal;font-variant:normal;font-weight:normal;font-stretch:normal;font-family:Serif;-inkscape-font-specification:Serif;fill:#77933c;fill-opacity:1"
   id="tspan6">是</tspan></tspan></text><text
         xml:space="preserve"
         style="font-size:6.88348px;line-height:0.95;font-family:sans-serif;text-align:center;text-anchor:middle;fill:#e46c0a;fill-opacity:1;stroke-width:0.172087"
         x="25.544239"
         y="75.100777"
         id="text8"
         inkscape:label="5Text"><tspan
           sodipodi:role="line"
           id="tspan8"
           style="fill:#e46c0a;fill-opacity:1;stroke-width:0.172087"
           x="25.544239"
           y="75.100777">5: <tspan
   style="font-style:normal;font-variant:normal;font-weight:normal;font-stretch:normal;font-family:Serif;-inkscape-font-specification:Serif;fill:#e46c0a;fill-opacity:1"
   id="tspan19">市</tspan></tspan></text><text
         xml:space="preserve"
         style="font-size:6.88348px;line-height:0.95;font-family:sans-serif;text-align:center;text-anchor:middle;fill:#00cc99;fill-opacity:1;stroke-width:0.172087"
         x="73.637794"
         y="86.604874"
         id="text2"
         inkscape:label="4Text"><tspan
           sodipodi:role="line"
           id="tspan2"
           style="fill:#00cc99;fill-opacity:1;stroke-width:0.172087"
           x="73.637794"
           y="86.604874">4: <tspan
   style="font-style:normal;font-variant:normal;font-weight:normal;font-stretch:normal;font-family:Serif;-inkscape-font-specification:Serif;fill:#00cc99;fill-opacity:1;stroke-width:0.172087"
   id="tspan3">時</tspan></tspan></text><text
         xml:space="preserve"
         style="font-size:6.88348px;line-height:0.95;font-family:sans-serif;text-align:center;text-anchor:middle;fill:#0070c0;fill-opacity:1;stroke-width:0.172087"
         x="34.053173"
         y="52.212612"
         id="text11"
         inkscape:label="3Text"><tspan
           sodipodi:role="line"
           id="tspan11"
           style="fill:#0070c0;fill-opacity:1;stroke-width:0.172087"
           x="34.053173"
           y="52.212612">3: <tspan
   style="font-style:normal;font-variant:normal;font-weight:normal;font-stretch:normal;font-family:Serif;-inkscape-font-specification:Serif;fill:#0070c0;fill-opacity:1"
   id="tspan12">試</tspan></tspan></text><text
         xml:space="preserve"
         style="font-size:6.88348px;line-height:0.95;font-family:sans-serif;text-align:center;text-anchor:middle;fill:#7030a0;fill-opacity:1;stroke-width:0.172087"
         x="68.027214"
         y="23.474049"
         id="text17"
         inkscape:label="2Text"><tspan
           sodipodi:role="line"
           id="tspan17"
           style="fill:#7030a0;fill-opacity:1;stroke-width:0.172087"
           x="68.027214"
           y="23.474049">2: <tspan
   style="font-style:normal;font-variant:normal;font-weight:normal;font-stretch:normal;font-family:Serif;-inkscape-font-specification:Serif;fill:#7030a0;fill-opacity:1"
   id="tspan18">史</tspan></tspan></text><text
         xml:space="preserve"
         style="font-size:6.88348px;line-height:0.95;font-family:sans-serif;text-align:center;text-anchor:middle;fill:#ff0000;fill-opacity:1;stroke-width:0.172087"
         x="39.306236"
         y="32.198502"
         id="text14"
         inkscape:label="1Text"><tspan
           sodipodi:role="line"
           id="tspan14"
           style="fill:#ff0000;fill-opacity:1;stroke-width:0.172087"
           x="39.306236"
           y="32.198502">1: <tspan
   style="font-style:normal;font-variant:normal;font-weight:normal;font-stretch:normal;font-family:Serif;-inkscape-font-specification:Serif;fill:#ff0000;fill-opacity:1"
   id="tspan15">詩</tspan></tspan></text></g><path
       style="fill:none;stroke:#77933c;stroke-width:0.529;stroke-opacity:1"
       d="m 16.441072,57.127041 2.352744,0.13255 a 9.3097344,9.3097344 9.5330485 0 1 2.218429,0.372553 l 1.406802,0.774839 a 7.1554994,7.1554994 19.049258 0 0 2.301511,0.794688 l 3.918748,0.638447 a 31.221608,31.221608 6.9873996 0 0 2.450603,0.30035 l 3.869409,0.319577 a 24.663156,24.663156 1.8537092 0 0 2.466486,0.07983 l 0.383341,-0.0068 a 30.046304,30.046304 176.63148 0 0 2.46452,-0.145061 l 5.106578,-0.511781 a 14.809823,14.809823 179.04551 0 1 2.461978,-0.04102 l 0.749049,0.04994 a 10.198094,10.198094 10.721451 0 1 2.410118,0.456331 l 4.443133,1.411905 a 55.495094,55.495094 18.904133 0 1 2.337019,0.800329 l 3.590494,1.319582 a 20.588864,20.588864 23.613364 0 1 2.259919,0.987962 9.0048897,9.0048897 19.225257 0 0 2.148787,0.749349 7.331243,7.331243 2.9299679 0 0 2.115673,0.108285 l 0.767806,-0.05484"
       id="path5"
       inkscape:path-effect="#path-effect5"
       inkscape:original-d="m 16.441072,57.127041 3.586224,0.202042 0.984949,0.303061 2.488954,1.370867 6.357466,1.035767 6.331897,0.522957 2.853825,-0.05051 7.565134,-0.758177 3.214449,0.214297 6.797969,2.160207 5.909696,2.171938 2.043088,1.04313 2.089394,0.464309 2.000102,-0.142864"
       inkscape:label="6" /><path
       style="fill:none;stroke:#e46c0a;stroke-width:0.529;stroke-opacity:1"
       d="m 16.197255,61.056686 0.01483,-0.0031 a 1.9043034,1.9043034 7.7176431 0 1 1.26642,0.171624 4.6219969,4.6219969 35.691699 0 1 0.971408,0.697814 l 3.387946,3.071187 a 8.994016,8.994016 37.879368 0 0 1.067781,0.830628 l 0.780386,0.517825 a 5.107152,5.107152 26.000613 0 0 1.20873,0.589553 l 0.320191,0.106731 a 6.2085927,6.2085927 12.199745 0 0 1.318171,0.284992 6.6641389,6.6641389 0.14618227 0 0 1.198208,0.0031 l 0.290196,-0.02208 a 7.1071405,7.1071405 170.1969 0 0 1.330797,-0.229943 l 1.244853,-0.339504 a 5.852566,5.852566 171.35615 0 1 1.332325,-0.202538 l 7.198206,-0.255471 a 6.6429282,6.6429282 3.7977894 0 1 1.346672,0.08939 l 0.66256,0.112399 a 23.08356,23.08356 11.311394 0 1 1.329728,0.265981 l 0.767479,0.17711 a 1.8548388,1.8548388 172.90679 0 0 1.264374,-0.157334 1.9908512,1.9908512 133.25821 0 0 0.50623,-0.537984 1.687337,1.687337 153.98036 0 1 0.911788,-0.445095 2.2511679,2.2511679 3.7141413 0 1 0.748098,0.04856 l 1.22584,0.120181 a 7.9369124,7.9369124 0.71443754 0 0 1.351621,0.01685 l 1.071429,-0.07813 a 3.787388,3.787388 165.67544 0 0 1.293887,-0.330399 l 2.956624,-1.346081 a 31.820186,31.820186 156.74256 0 1 1.246129,-0.535571 l 0.242531,-0.09817 a 14.11841,14.11841 160.71447 0 1 1.279049,-0.447554 l 0.985278,-0.292504 a 15.615315,15.615315 165.95251 0 1 1.314843,-0.328985 l 3.385392,-0.692467 a 18.861248,18.861248 166.38017 0 0 1.317652,-0.319256 l 0.729648,-0.204814 a 8.8853713,8.8853713 159.95486 0 0 1.270773,-0.463658 l 3.407717,-1.546578 a 4.7422387,4.7422387 163.72959 0 1 1.289197,-0.376266 4.5968209,4.5968209 0.27621333 0 1 1.25106,0.006 l 0.952579,0.125614"
       id="path4"
       inkscape:path-effect="#path-effect4"
       inkscape:original-d="m 16.197255,61.056686 0.678606,-0.142864 1.071483,0.5536 4.393082,3.982347 1.910812,1.267921 1.607225,0.535741 1.19649,0.125008 1.64294,-0.125008 2.553703,-0.696462 8.554006,-0.303589 2.000104,0.339305 2.089391,0.482166 0.660749,-0.339302 0.701297,-0.794478 0.732398,-0.176784 2.57602,0.252551 2.424491,-0.176787 4.191336,-1.908217 1.500077,-0.607174 2.28583,-0.678606 4.714526,-0.964335 2.035818,-0.571458 4.643093,-2.10725 1.250064,-0.17858 1.625084,0.214296"
       sodipodi:nodetypes="ccccccccccccccccccccccccc"
       inkscape:label="5" /><path
       style="fill:none;fill-opacity:1;stroke:#00cc99;stroke-width:0.529;stroke-dasharray:none;stroke-opacity:1"
       d="m 16.466326,63.036735 1.711403,-0.158084 a 4.4363964,4.4363964 12.693118 0 1 2.670612,0.601511 l 4.278961,2.536999 a 3.5245956,3.5245956 8.4554212 0 0 2.635457,0.391775 l 2.448294,-0.599224 a 5.0454252,5.0454252 2.1652837 0 1 2.765582,0.104565 l 2.514507,0.821063 a 22.386062,22.386062 14.405584 0 0 2.781688,0.714505 l 15.459031,2.928762 a 7.2655229,7.2655229 21.930333 0 1 2.618797,1.05436 l 10.772032,7.031029 a 1.8250469,1.8250469 174.87897 0 0 2.250929,-0.201723 0.88919,0.88919 23.606173 0 1 1.340347,0.585755 2.4187726,2.4187726 34.290026 0 0 1.605686,1.094915 l 0.667591,0.242002"
       id="path2"
       sodipodi:nodetypes="cccccccccc"
       inkscape:label="4"
       inkscape:original-d="m 16.466326,63.036735 3.14426,-0.290438 6.754471,4.004729 5.243698,-1.283404 5.250267,1.714373 18.286647,3.464462 13.18201,8.604049 1.830995,-1.729974 0.808163,1.932015 2.020406,0.732398"
       inkscape:path-effect="#path-effect2" /><path
       style="fill:none;stroke:#4a7ebb;stroke-width:0.529;stroke-opacity:1"
       d="m 15.536507,53.217002 2.330186,-0.367181 a 7.9688501,7.9688501 175.52261 0 1 1.240391,-0.09713 l 0.662815,0 a 4.7617566,4.7617566 7.4657136 0 1 1.226928,0.160781 1.5311304,1.5311304 37.121602 0 1 0.825715,0.624973 l 0.318028,0.715563 a 2.4876837,2.4876837 51.956233 0 0 0.745985,0.953315 l 1.425727,1.108898 a 3.5623714,3.5623714 27.939611 0 0 1.085999,0.575968 1.283051,1.283051 172.75696 0 0 0.674478,-0.08572 l 0.685649,-0.480977 c 0.28213,-0.197912 0.772704,-0.456063 1.099929,-0.56424 1.132841,-0.374504 3.701834,-1.120423 5.946959,-1.026317 2.982296,0.125007 13.846544,1.045954 15.139093,-0.385956 1.077012,-1.193134 -0.04322,-1.092976 1.894131,-1.843622 2.122698,-0.822461 5.289344,-1.556329 8.503793,0.05089 3.214452,1.607225 1.125059,-1.160772 6.428901,0.01786 5.30384,1.178631 8.51667,1.838004 9.009145,2.734561 0.492474,0.896556 0.794927,1.247783 2.33072,1.247783 1.535792,0 9.214754,-0.107148 10.0898,1.357212 0.875043,1.46436 0.860008,2.232642 1.625082,2.000102 0.74178,-0.22546 0.603012,-0.300871 0.965658,-0.424627"
       id="path6"
       inkscape:path-effect="#path-effect6"
       inkscape:original-d="m 15.536507,53.217002 2.946579,-0.464309 h 1.910812 l 1.071483,0.285729 0.357161,0.500025 0.571458,1.28578 2.410837,1.875094 0.714322,0.232156 0.5536,-0.125007 1.19649,-0.839328 c 0,0 3.553754,-1.357211 6.536047,-1.232206 2.982296,0.125007 13.846544,1.045954 15.139093,-0.385956 1.077012,-1.193134 -0.04322,-1.092976 1.894131,-1.843622 2.122698,-0.822461 5.289344,-1.556329 8.503793,0.05089 3.214452,1.607225 1.125059,-1.160772 6.428901,0.01786 5.30384,1.178631 8.51667,1.838004 9.009145,2.734561 0.492474,0.896556 0.794927,1.247783 2.33072,1.247783 1.535792,0 9.214754,-0.107148 10.0898,1.357212 0.875043,1.46436 0.860008,2.232642 1.625082,2.000102 0.74178,-0.22546 0.603012,-0.300871 0.965658,-0.424627"
       sodipodi:nodetypes="ccccccccccsssssssssc"
       inkscape:label="3" /><path
       style="fill:none;stroke:#7030a0;stroke-width:0.529;stroke-opacity:1"
       d="m 16.42941,63.860401 3.211178,1.15207 a 1.8936717,1.8936717 5.7451414 0 0 0.911081,0.09166 l 7.375676,-1.068909 a 2.1102585,2.1102585 159.15029 0 0 0.860631,-0.327778 l 1.21276,-0.801288 a 0.84628909,0.84628909 175.688 0 1 0.821894,-0.06197 l 1.536536,0.710933 a 2.6705867,2.6705867 14.809725 0 0 0.898413,0.237534 l 5.452802,0.45694 a 2.6697578,2.6697578 174.7675 0 0 0.925402,-0.08475 l 0.661085,-0.180296 a 2.7287849,2.7287849 154.93477 0 0 0.842307,-0.393943 l 0.404441,-0.281882 a 6.3483429,6.3483429 140.874 0 0 0.730053,-0.593848 l 3.850029,-3.637824 a 1.3724424,1.3724424 151.21434 0 1 0.699262,-0.384194 0.58370614,0.58370614 76.767768 0 1 0.523298,0.717325 0.4882163,0.4882163 25.106864 0 0 0.436394,0.204486 l 2.743985,-3.887314 a 37.887916,37.887916 122.48123 0 0 1.942706,-3.051645 l 1.435799,-2.512647 a 24.35396,24.35396 115.49248 0 0 1.554451,-3.260077 L 59.835185,35.6454 a 66.66953,66.66953 111.64557 0 1 0.348079,-0.877109 l 0.616329,-1.521561 a 26.198634,26.198634 116.83323 0 1 1.971804,-3.897889 12.808176,12.808176 131.38092 0 1 2.240901,-2.54351 l 0.950565,-0.891889 a 0.68992912,0.68992912 171.19205 0 1 0.769752,-0.119273 1.040451,1.040451 50.107632 0 1 0.535076,0.640117 l 2.246612,7.272422 a 1.9042623,1.9042623 58.916464 0 0 0.472907,0.784457 0.57014295,0.57014295 1.5015269 0 0 0.632819,0.01659 1.2611179,1.2611179 137.36086 0 0 0.435201,-0.400737"
       id="path3"
       inkscape:path-effect="#path-effect3"
       inkscape:original-d="m 16.42941,63.860401 3.655299,1.311406 8.309596,-1.204257 2.000102,-1.321496 2.392982,1.107199 6.393182,0.535742 1.571509,-0.428594 1.178631,-0.82147 4.535945,-4.285932 0.356304,-0.06014 0.441965,0.25255 0.08839,0.505103 0.429337,0.164158 3.788264,-5.366711 3.232653,-5.657143 5.202552,-13.385202 1.616327,-3.990308 1.791501,-2.91029 2.893005,-2.714425 0.82147,0.392878 2.525146,8.174056 0.530358,0.530358 0.580866,-0.239925 0.290436,-0.340942"
       sodipodi:nodetypes="cccccccccccccccccccccccc"
       inkscape:label="2" /><path
       style="fill:none;stroke:#ff0000;stroke-width:0.529;stroke-opacity:1"
       d="m 15.658163,41.266837 c 0,0 19.236476,-5.586444 22.522357,-5.943605 3.285882,-0.357161 13.731416,-0.406177 15.284532,-0.723741 2.241154,-0.458247 6.649979,-1.981072 9.117092,2.424488 2.544575,4.543884 3.915416,8.397322 4.369133,8.675129"
       id="path7"
       sodipodi:nodetypes="csssc"
       inkscape:label="1" /></g><g
     inkscape:groupmode="layer"
     id="layer2"
     inkscape:label="Graph"
     inkscape:highlight-color="#ff2eb0"><g
       id="path25"
       inkscape:label="Axes"><path
         style="color:#000000;fill:#000000;-inkscape-stroke:none"
         d="M 11.958984,3.8378906 V 94.203125 H 99.755859 V 93.673828 H 12.488281 V 3.8378906 Z"
         id="path33"
         inkscape:label="X/Y" /><g
         id="g27"
         inkscape:label="Ends"><g
           id="path30"><path
             style="color:#000000;fill:#000000;fill-rule:evenodd;-inkscape-stroke:none"
             d="m 101.28173,93.937827 -2.288644,1.322917 V 92.61491 Z"
             id="path31" /><path
             style="color:#000000;fill:#000000;fill-rule:evenodd;-inkscape-stroke:none"
             d="m 98.816406,92.308594 v 3.257812 l 2.818364,-1.628906 -0.26563,-0.152344 z m 0.353516,0.613281 1.759768,1.015625 -1.759768,1.015625 z"
             id="path32" /></g><g
           id="path27"><path
             style="color:#000000;fill:#000000;fill-rule:evenodd;-inkscape-stroke:none"
             d="M 12.223469,2.3121287 13.546386,4.600776 H 10.900552 Z"
             id="path28" /><path
             style="color:#000000;fill:#000000;fill-rule:evenodd;-inkscape-stroke:none"
             d="m 12.222656,1.9589844 -0.152343,0.265625 -1.47461,2.5527343 h 3.25586 z m 0,0.7070312 1.017578,1.7578125 h -2.033203 z"
             id="path29" /></g></g></g><g
       id="g33"
       inkscape:label="Graduation"><text
         xml:space="preserve"
         style="font-size:3.74046px;line-height:0.95;font-family:sans-serif;text-align:center;text-anchor:middle;fill:#000000;fill-opacity:1;stroke-width:0.0935116"
         x="12.22347"
         y="99.723503"
         id="text13"
         inkscape:label="0"><tspan
           sodipodi:role="line"
           id="tspan13"
           style="fill:#000000;fill-opacity:1;stroke-width:0.0935116"
           x="12.22347"
           y="99.723503">0</tspan></text><text
         xml:space="preserve"
         style="font-size:3.74046px;line-height:0.95;font-family:sans-serif;text-align:center;text-anchor:middle;fill:#000000;fill-opacity:1;stroke-width:0.0935116"
         x="29.861092"
         y="99.723503"
         id="text16"
         inkscape:label="0.1"><tspan
           sodipodi:role="line"
           id="tspan16"
           style="fill:#000000;fill-opacity:1;stroke-width:0.0935116"
           x="29.861092"
           y="99.723503">0.1</tspan></text><text
         xml:space="preserve"
         style="font-size:3.74046px;line-height:0.95;font-family:sans-serif;text-align:center;text-anchor:middle;fill:#000000;fill-opacity:1;stroke-width:0.0935116"
         x="45.358681"
         y="99.723503"
         id="text22"
         inkscape:label="0.2"><tspan
           sodipodi:role="line"
           id="tspan22"
           style="fill:#000000;fill-opacity:1;stroke-width:0.0935116"
           x="45.358681"
           y="99.723503">0.2</tspan></text><text
         xml:space="preserve"
         style="font-size:3.74046px;line-height:0.95;font-family:sans-serif;text-align:center;text-anchor:middle;fill:#000000;fill-opacity:1;stroke-width:0.0935116"
         x="60.966785"
         y="99.723503"
         id="text23"
         inkscape:label="0.3"><tspan
           sodipodi:role="line"
           id="tspan23"
           style="fill:#000000;fill-opacity:1;stroke-width:0.0935116"
           x="60.966785"
           y="99.723503">0.3</tspan></text><text
         xml:space="preserve"
         style="font-size:3.74046px;line-height:0.95;font-family:sans-serif;text-align:center;text-anchor:middle;fill:#000000;fill-opacity:1;stroke-width:0.0935116"
         x="76.339622"
         y="99.723503"
         id="text24"
         inkscape:label="0.4"><tspan
           sodipodi:role="line"
           id="tspan24"
           style="fill:#000000;fill-opacity:1;stroke-width:0.0935116"
           x="76.339622"
           y="99.723503">0.4</tspan></text><text
         xml:space="preserve"
         style="font-size:3.74046px;line-height:0.95;font-family:sans-serif;text-align:center;text-anchor:middle;fill:#000000;fill-opacity:1;stroke-width:0.0935116"
         x="91.754654"
         y="99.723503"
         id="text25"
         inkscape:label="0.5"><tspan
           sodipodi:role="line"
           id="tspan25"
           style="fill:#000000;fill-opacity:1;stroke-width:0.0935116"
           x="91.754654"
           y="99.723503">0.5</tspan></text></g><text
       xml:space="preserve"
       style="font-size:3.74046px;line-height:0.95;font-family:sans-serif;text-align:center;text-anchor:middle;fill:#000000;fill-opacity:1;stroke-width:0.0935116"
       x="-48.918224"
       y="6.9896984"
       id="text9"
       transform="rotate(-90)"
       inkscape:label="Relative pitch"><tspan
         sodipodi:role="line"
         id="tspan9"
         style="fill:#000000;fill-opacity:1;stroke-width:0.0935116"
         x="-48.918224"
         y="6.9896984">Relative pitch</tspan></text><text
       xml:space="preserve"
       style="font-size:3.74046px;line-height:0.95;font-family:sans-serif;text-align:center;text-anchor:middle;fill:#000000;fill-opacity:1;stroke-width:0.0935116"
       x="56.045383"
       y="104.2261"
       id="text10"
       inkscape:label="Times(s)"><tspan
         sodipodi:role="line"
         id="tspan10"
         style="fill:#000000;fill-opacity:1;stroke-width:0.0935116"
         x="56.045383"
         y="104.2261">Time(s)</tspan></text></g></svg>
