<?xml version="1.0" encoding="utf-8"?>
<!-- Generator: Adobe Illustrator 27.5.0, SVG Export Plug-In . SVG Version: 6.00 Build 0)  -->
<svg version="1.1" xmlns="http://www.w3.org/2000/svg" xmlns:xlink="http://www.w3.org/1999/xlink" x="0px" y="0px"
	 viewBox="0 0 750 500" style="enable-background:new 0 0 750 500;" xml:space="preserve">
<g id="BACKGROUND">
	<g>
		<rect style="fill:#D0E2F7;" width="750" height="500"/>
		<path style="fill:#FFFFFF;" d="M382.158,78.759c-8.241,4.672-16.352,9.209-24.316,13.434
			c-78.352,41.572-175.435,31.659-250.085,80.342c-18.125,11.82-33.316,27.374-44.331,45.915
			c-31.63,53.242-22.95,131.745,36.999,161.308c65.701,32.399,141.947,11.953,210.935,4.901
			c98.255-10.043,208.026,39.442,301.331-6.112c125.144-61.099,114.483-257.016,2.135-320.537
			C537.898,14.515,450.854,39.81,382.158,78.759z"/>
	</g>
</g>
<g id="OBJECTS">
	<g>
		<path style="fill:#79A0D4;" d="M549.221,161.876c-2.039,0.734-7.456,3.606-11.847,8.811
			c-11.896,14.099-24.257,32.186-24.257,32.186s-6.877-7.388-10.762-10.498c-3.885-3.11-9.397-6.325-9.397-6.325l-9.664,9.566
			c0,0,13.773,21.748,19.128,27.404c5.355,5.656,10.158,7.191,15.605,5.091c5.446-2.1,24.763-22.916,30.603-31.118L549.221,161.876z
			"/>
		<path style="fill:#FEC1B2;" d="M487.028,181.758l-3.181-4.146c0,0-3.031-10.294-5.128-12.153s-11.616-10.847-11.616-10.847
			s-0.744,3.893,0.618,5.705c1.361,1.812,3.118,5.127,3.118,5.127s-6.908-3.647-7.596-4.431c-0.688-0.783-0.483-3.972-1.108-5.736
			c-0.625-1.764-2.121-5.309-2.675-4.36c-0.554,0.95-1.447,10.991-1.558,12.708c-0.111,1.717,0.831,6.211,2.192,8.023
			c1.361,1.812,7.517,5.657,8.894,7.223c1.377,1.567,10.943,9.819,10.943,9.819L487.028,181.758z"/>
		<polygon style="fill:#557FB6;" points="492.957,186.05 486.815,179.934 477.818,188.859 483.294,195.616 		"/>
		<g>
			<g>
				<g>
					<rect x="558.65" y="346.377" style="fill:#133A50;" width="7.294" height="74.785"/>
					<rect x="557.87" y="393.957" style="fill:#2A5E80;" width="8.855" height="22.059"/>
					<rect x="556.434" y="416.016" style="fill:#2A5E80;" width="11.727" height="10.291"/>
					<rect x="548.084" y="334.628" style="fill:#133A50;" width="28.427" height="19.482"/>
					<path style="fill:#133A50;" d="M590.733,343.391h-59.712c-2.151-2.151-3.357-3.357-5.508-5.508v-3.573
						c2.151-2.151,3.357-3.357,5.508-5.508h59.712c3.042,0,5.507,2.466,5.507,5.507v3.574
						C596.24,340.925,593.775,343.391,590.733,343.391z"/>
					<polygon style="fill:#133A50;" points="590.549,436.139 568.161,425.039 568.161,417.297 593.488,434.275 					"/>
					<path style="fill:#133A50;" d="M598.733,438.313c0,2.897-2.349,5.246-5.245,5.246c-2.897,0-5.246-2.349-5.246-5.246
						c0-2.897,2.349-5.246,5.246-5.246C596.385,433.068,598.733,435.416,598.733,438.313z"/>
					<path style="fill:#133A50;" d="M567.543,438.313c0,2.897-2.349,5.246-5.246,5.246c-2.897,0-5.246-2.349-5.246-5.246
						c0-2.897,2.349-5.246,5.246-5.246C565.194,433.068,567.543,435.416,567.543,438.313z"/>
					<polygon style="fill:#133A50;" points="534.046,436.139 556.434,425.039 556.434,417.297 531.107,434.275 					"/>
					<path style="fill:#133A50;" d="M525.862,438.313c0,2.897,2.348,5.246,5.245,5.246c2.897,0,5.245-2.349,5.245-5.246
						c0-2.897-2.348-5.246-5.245-5.246C528.21,433.068,525.862,435.416,525.862,438.313z"/>
					<rect x="560.877" y="421.162" style="fill:#133A50;" width="2.841" height="17.087"/>
				</g>
			</g>
			<path style="fill:#2A5E80;" d="M618.058,335.93c0,0,9.602-17.583,9.711-68.505c0.109-50.922,20.313-79.383,19.354-83.761
				l-8.588-4.563H564.81c0,0-23.365,44.964-27.175,62.772c-3.81,17.807-9.133,90.799-9.133,90.799L618.058,335.93z"/>
			<path style="fill:#133A50;" d="M611.41,335.93c0,0,9.602-17.583,9.711-68.505c0.109-50.922,18.373-83.947,17.414-88.324h-80.374
				c0,0-26.853,44.964-30.663,62.772c-3.81,17.807-9.133,90.799-9.133,90.799L611.41,335.93z"/>
			<rect x="542.857" y="315.798" style="fill:#2A5E80;" width="75.202" height="20.132"/>
			<path style="fill:#133A50;" d="M600.529,335.93H490.222v-20.132h117.256h0c-3.834-0.012-6.948,3.093-6.948,6.927v0.753V335.93z"
				/>
		</g>
		<g>
			<path style="fill:#466996;" d="M534.81,275.631c0,0-48.905,31.523-53.029,34.764c-4.124,3.241-5.008,9.722-4.124,15.614
				c0.884,5.892,8.544,61.278,10.311,66.876c1.768,5.598,3.556,10.758,3.556,10.758l17.708-0.805c0,0,1.715-3.472,2.894-7.891
				c1.178-4.419-1.178-31.818-1.768-38.299c-0.589-6.481-1.473-23.863-1.473-23.863s54.502-20.622,66.287-36.237
				c1.853-2.455,7.071-21.506,7.071-21.506L534.81,275.631z"/>
			<path style="fill:#557FB6;" d="M601.798,270.73c5.727,12.089,4.424,33.03-4.129,40.403
				c-11.251,9.699-57.461,13.379-57.461,13.379s10.817,19.088,15.907,36.904c5.09,17.816,8.272,35.632,8.272,35.632l-17.139,6.109
				c0,0-24.568-36.242-31.087-45.507c-9.882-14.043-15.083-24.965-17.947-36.32c-1.564-6.2,1.823-15.17,13.362-21.633
				c7.022-3.933,41.358-25.451,43.267-25.451C556.751,274.246,601.798,270.73,601.798,270.73z"/>
			<path style="fill:#FFFFFF;" d="M574.247,420.125l5.8,0.042c0,0,4.828,2.725,3.644,4.795c-1.183,2.071-9.937,10.565-16.075,13.442
				c-3.604,1.689-6.138,3.836-9.947,4.218c-1.249,0.125-20.49-0.382-20.49-0.382s-0.384-2.11,0.826-2.281l17.889-5.62
				L574.247,420.125z"/>
			<path style="fill:#E69187;" d="M553.931,414.414c1.231,2.209,3.722,9.475,3.722,9.475l17.646-6.851c0,0-4.18-6.079-6.242-8.956
				c-2.062-2.877-7.045-8.275-7.045-8.275L553.931,414.414z"/>
			<path style="fill:#557FB6;" d="M571.34,411.149c0,0-7.111,6.228-9.478,7.115c-2.366,0.887-6.454,0.433-6.454,0.433
				s-6.275,9.961-8.937,12.327c-2.662,2.366-7.578,6.273-8.761,8.639c0,0,17.488-1.07,20.125-2.411
				c7.864-3.999,14.523-9.837,18.537-15.453c1.481-2.072,3.676-1.634,3.676-1.634s-1.363-1.817-2.546-3.296
				C576.317,415.392,571.34,411.149,571.34,411.149z"/>
			<path style="fill:#FFFFFF;" d="M509.599,429.839l5.521,1.778c0,0,3.497,7.89,1.748,9.511c-1.749,1.621-8.564,1.116-15.398,1.71
				c-7.741,0.672-28.629,0.997-32.683-0.598c-0.564-0.222-0.384-2.11,0.826-2.281l17.889-5.62L509.599,429.839z"/>
			<polygon style="fill:#557FB6;" points="564.386,397.048 569.057,408.082 553.931,414.414 547.247,403.158 			"/>
			<path style="fill:#E69187;" d="M492.822,424.132c1.862-1.176,0.918-14.393,0.918-14.393l13.688-2.36
				c0,0,2.458,10.149,4.533,14.869c2.075,4.719-2.362,7.591-2.362,7.591l-8.071,4.209L492.822,424.132z"/>
			<path style="fill:#557FB6;" d="M511.961,422.248c0,0-10.328,3.267-12.851,3.405c-2.524,0.137-6.287-1.521-6.287-1.521
				s-9.636,6.369-12.298,8.736c-2.662,2.367-10.024,4.43-11.207,6.796c0,0,23.261-0.22,26.075-1.132
				c5.61-1.818,10.896-2.574,15.812-3.776c2.474-0.605,4.624-1.015,4.624-1.015s-0.162-3.356-0.848-5.121
				C514.295,426.854,511.961,422.248,511.961,422.248z"/>
			<polygon style="fill:#466996;" points="510.036,414.107 494.341,415.314 491.524,403.643 509.231,402.838 			"/>
		</g>
		<g>
			<rect x="324.674" y="126.207" style="fill:#1B2C44;" width="2.161" height="122.819"/>
			<path style="fill:#1B2C44;" d="M324.237,128.171l1.663,0.675c1.527,0.619,3.249-0.25,3.658-1.846l3.471-13.543
				c0.426-1.662-0.775-3.299-2.488-3.392l0,0c-1.166-0.063-2.242,0.624-2.674,1.708l-5.134,12.868
				C322.178,126.032,322.85,127.608,324.237,128.171z"/>
			
				<rect x="255.817" y="112.898" transform="matrix(0.991 -0.134 0.134 0.991 -12.3852 43.4745)" style="fill:#1B2C44;" width="121.774" height="1.655"/>
			<path style="fill:#1B2C44;" d="M383.1,105.938l-14.842,4.104c-1.107,0.306-2.241-0.392-2.467-1.518l-0.435-2.169
				c-0.226-1.126,0.552-2.207,1.691-2.352l15.277-1.934c1.029-0.13,1.984,0.557,2.188,1.574l0,0
				C384.717,104.659,384.1,105.661,383.1,105.938z"/>
			<path style="fill:none;stroke:#1B2C44;stroke-width:0.25;stroke-miterlimit:10;" d="M249.746,116.636
				c6.3-3.735,13.641-1.451,20.033,0.682c6.572,2.193,13.415,3.803,20.36,4.075c8.421,0.33,16.28-2.695,23.881-5.968
				c5.512-2.374,10.572-7.242,16.775-7.804c12.516-1.132,7.015,18.75,5.236,25.069c-3.154,11.201-9.028,21.439-11.969,32.71
				c-3.132,11.999-1.378,24.235,2.424,35.884c4.746,14.543,12.53,34.674,0.35,47.742"/>
			<g>
				<path style="fill:#BECCD5;" d="M259.448,113.404l-2.345-1.072c-2.965-1.356-6.468-0.052-7.825,2.914l-6.465,14.135
					c-1.356,2.965-0.052,6.469,2.914,7.825l2.344,1.072c2.965,1.356,6.469,0.052,7.825-2.914l6.465-14.135
					C263.717,118.263,262.413,114.76,259.448,113.404z"/>
				<path style="fill:#1B2C44;" d="M248.362,117.248l0.916-2.003c1.356-2.965,4.86-4.27,7.825-2.914l2.345,1.072
					c2.965,1.356,4.27,4.859,2.914,7.825l-0.916,2.003L248.362,117.248z"/>
				<g>
					
						<line style="fill:none;stroke:#A3BBC3;stroke-width:0.75;stroke-miterlimit:10;" x1="252.278" y1="131.135" x2="256.754" y2="133.183"/>
					
						<line style="fill:none;stroke:#A3BBC3;stroke-width:0.75;stroke-miterlimit:10;" x1="253.564" y1="128.325" x2="258.04" y2="130.372"/>
					
						<line style="fill:none;stroke:#A3BBC3;stroke-width:0.75;stroke-miterlimit:10;" x1="254.849" y1="125.514" x2="259.326" y2="127.561"/>
					
						<line style="fill:none;stroke:#A3BBC3;stroke-width:0.75;stroke-miterlimit:10;" x1="256.135" y1="122.703" x2="260.611" y2="124.75"/>
				</g>
				<g>
					
						<line style="fill:none;stroke:#A3BBC3;stroke-width:0.75;stroke-miterlimit:10;" x1="243.842" y1="127.277" x2="248.319" y2="129.325"/>
					
						<line style="fill:none;stroke:#A3BBC3;stroke-width:0.75;stroke-miterlimit:10;" x1="245.128" y1="124.467" x2="249.604" y2="126.514"/>
					
						<line style="fill:none;stroke:#A3BBC3;stroke-width:0.75;stroke-miterlimit:10;" x1="246.413" y1="121.656" x2="250.89" y2="123.703"/>
					
						<line style="fill:none;stroke:#A3BBC3;stroke-width:0.75;stroke-miterlimit:10;" x1="247.699" y1="118.845" x2="252.175" y2="120.892"/>
				</g>
			</g>
			<rect x="315.186" y="245.159" style="fill:#1B2C44;" width="23.429" height="5.857"/>
		</g>
		<g>
			
				<rect x="448.671" y="126.207" transform="matrix(-1 -1.224647e-16 1.224647e-16 -1 899.5034 375.2332)" style="fill:#1B2C44;" width="2.161" height="122.819"/>
			<path style="fill:#1B2C44;" d="M450.892,128.077l-1.298,0.208c-1.35,0.216-2.647-0.616-3.014-1.932l-4.258-15.279
				c-0.446-1.602,0.654-3.22,2.308-3.394l0,0c1.223-0.129,2.378,0.589,2.803,1.743l5.556,15.071
				C453.574,126.082,452.563,127.81,450.892,128.077z"/>
			
				<rect x="398.527" y="112.279" transform="matrix(-0.978 -0.2087 0.2087 -0.978 883.425 319.444)" style="fill:#1B2C44;" width="120.083" height="1.655"/>
			<path style="fill:#1B2C44;" d="M398.673,102.26l14.751,3.825c1.1,0.285,2.212-0.423,2.417-1.541l0.396-2.154
				c0.206-1.118-0.581-2.175-1.711-2.3l-15.147-1.672c-1.021-0.113-1.955,0.582-2.14,1.592l0,0
				C397.053,101.021,397.68,102.003,398.673,102.26z"/>
			<path style="fill:none;stroke:#1B2C44;stroke-width:0.25;stroke-miterlimit:10;" d="M521.038,118.744
				c-5.7-3.379-16.366-1.09-22.583,1.204c-6.217,2.294-17.163,3.011-28.449,0.505c-5.296-1.176-15.845-7.877-20.518-10.652
				c-8.456-5.021-7.734,13.688-7.604,17.535c0.415,12.313,5.881,23.599,8.931,35.35c3.339,12.867,2.315,26.008-1.793,38.598
				c-4.746,14.543-12.53,34.674-0.35,47.742"/>
			<g>
				<path style="fill:#BECCD5;" d="M514.861,116.947l2.419-0.891c3.06-1.127,6.454,0.441,7.58,3.501l5.37,14.586
					c1.126,3.06-0.441,6.454-3.501,7.58l-2.419,0.891c-3.06,1.126-6.454-0.441-7.58-3.501l-5.37-14.586
					C510.233,121.468,511.801,118.074,514.861,116.947z"/>
				<path style="fill:#1B2C44;" d="M525.621,121.625l-0.761-2.067c-1.127-3.06-4.52-4.627-7.58-3.501l-2.419,0.891
					c-3.06,1.126-4.627,4.52-3.501,7.58l0.761,2.067L525.621,121.625z"/>
				<g>
					
						<line style="fill:none;stroke:#A3BBC3;stroke-width:0.75;stroke-miterlimit:10;" x1="520.66" y1="135.173" x2="516.04" y2="136.874"/>
					
						<line style="fill:none;stroke:#A3BBC3;stroke-width:0.75;stroke-miterlimit:10;" x1="519.592" y1="132.273" x2="514.973" y2="133.973"/>
					
						<line style="fill:none;stroke:#A3BBC3;stroke-width:0.75;stroke-miterlimit:10;" x1="518.524" y1="129.372" x2="513.905" y2="131.073"/>
					
						<line style="fill:none;stroke:#A3BBC3;stroke-width:0.75;stroke-miterlimit:10;" x1="517.456" y1="126.472" x2="512.837" y2="128.173"/>
				</g>
				<g>
					
						<line style="fill:none;stroke:#A3BBC3;stroke-width:0.75;stroke-miterlimit:10;" x1="529.365" y1="131.969" x2="524.746" y2="133.669"/>
					
						<line style="fill:none;stroke:#A3BBC3;stroke-width:0.75;stroke-miterlimit:10;" x1="528.297" y1="129.068" x2="523.678" y2="130.769"/>
					
						<line style="fill:none;stroke:#A3BBC3;stroke-width:0.75;stroke-miterlimit:10;" x1="527.229" y1="126.168" x2="522.61" y2="127.868"/>
					
						<line style="fill:none;stroke:#A3BBC3;stroke-width:0.75;stroke-miterlimit:10;" x1="526.161" y1="123.267" x2="521.542" y2="124.968"/>
				</g>
			</g>
			
				<rect x="436.892" y="245.159" transform="matrix(-1 -1.224647e-16 1.224647e-16 -1 897.2124 496.1749)" style="fill:#1B2C44;" width="23.429" height="5.857"/>
		</g>
		<g>
			<g>
				<g>
					<g>
						
							<rect x="198.494" y="346.377" transform="matrix(-1 -1.224647e-16 1.224647e-16 -1 404.2818 767.5385)" style="fill:#133A50;" width="7.294" height="74.785"/>
						
							<rect x="197.713" y="393.957" transform="matrix(-1 -1.224647e-16 1.224647e-16 -1 404.2817 809.9729)" style="fill:#2A5E80;" width="8.855" height="22.059"/>
						
							<rect x="196.278" y="416.016" transform="matrix(-1 -1.224647e-16 1.224647e-16 -1 404.282 842.3233)" style="fill:#2A5E80;" width="11.727" height="10.291"/>
						
							<rect x="187.928" y="334.628" transform="matrix(-1 -1.224647e-16 1.224647e-16 -1 404.282 688.7372)" style="fill:#133A50;" width="28.427" height="19.482"/>
						<path style="fill:#133A50;" d="M173.705,343.391h59.712c2.151-2.151,3.357-3.357,5.508-5.508v-3.573
							c-2.151-2.151-3.357-3.357-5.508-5.508h-59.712c-3.042,0-5.507,2.466-5.507,5.507v3.574
							C168.198,340.925,170.664,343.391,173.705,343.391z"/>
						<polygon style="fill:#133A50;" points="173.889,436.139 196.278,425.039 196.278,417.297 170.951,434.275 						"/>
						<path style="fill:#133A50;" d="M165.705,438.313c0,2.897,2.348,5.246,5.245,5.246c2.897,0,5.246-2.349,5.246-5.246
							c0-2.897-2.349-5.246-5.246-5.246C168.054,433.068,165.705,435.416,165.705,438.313z"/>
						<path style="fill:#133A50;" d="M196.895,438.313c0,2.897,2.349,5.246,5.245,5.246c2.897,0,5.246-2.349,5.246-5.246
							c0-2.897-2.348-5.246-5.246-5.246C199.244,433.068,196.895,435.416,196.895,438.313z"/>
						<polygon style="fill:#133A50;" points="230.393,436.139 208.004,425.039 208.004,417.297 233.331,434.275 						"/>
						<path style="fill:#133A50;" d="M238.577,438.313c0,2.897-2.348,5.246-5.245,5.246c-2.897,0-5.245-2.349-5.245-5.246
							c0-2.897,2.349-5.246,5.245-5.246C236.228,433.068,238.577,435.416,238.577,438.313z"/>
						
							<rect x="200.72" y="421.162" transform="matrix(-1 -1.224647e-16 1.224647e-16 -1 404.2817 859.4103)" style="fill:#133A50;" width="2.841" height="17.087"/>
					</g>
				</g>
				<path style="fill:#2A5E80;" d="M146.38,335.93c0,0-9.602-17.583-9.711-68.505c-0.109-50.922-20.313-79.383-19.354-83.761
					l8.588-4.563h73.725c0,0,38.051,44.964,41.861,62.772c3.81,17.807,9.133,90.799,9.133,90.799L146.38,335.93z"/>
				<path style="fill:#133A50;" d="M153.029,335.93c0,0-9.602-17.583-9.711-68.505c-0.109-50.922-18.373-83.947-17.414-88.324
					h80.374c0,0,38.051,44.964,41.861,62.772c3.81,17.807,9.133,90.799,9.133,90.799L153.029,335.93z"/>
				
					<rect x="146.38" y="315.798" transform="matrix(-1 -1.224647e-16 1.224647e-16 -1 367.9617 651.7285)" style="fill:#2A5E80;" width="75.202" height="20.132"/>
				<path style="fill:#133A50;" d="M163.909,335.93h110.307v-20.132H156.961l0,0c3.834-0.012,6.949,3.093,6.949,6.927v0.753V335.93z
					"/>
			</g>
			<g>
				<g>
					<path style="fill:#184867;" d="M320.482,434.488c3.117-0.553,6.366,1.348,7.202,2.316c0.836,0.968,0.096,5.72-6.93,6.286
						c-7.811,0.63-24.073,0.566-30.142,0.566c-4.337,0-7.467-1.559-6.799-3.853c0.668-2.293,0.759-6.573,1.929-6.751
						C286.913,432.876,320.482,434.488,320.482,434.488z"/>
					<path style="fill:#133A50;" d="M307.521,425.397c-0.662-0.878-4.342-4.263-5.778-4.109c-9.374,1.007-5.551,3.301-8.145,3.958
						c-3.957,1.002-5.256,0.367-5.759-0.816c0,0-1.766-0.29-2.082,1.206c-0.316,1.496,0.155,5.684-0.489,8.444
						c-0.644,2.759,2.846,3.244,7.763,3.297c4.918,0.053,9.879,2.285,18.629,2.043c10.68-0.295,14.013,0.801,15.475-1.34
						c1.462-2.141-2.407-2.973-11.326-7.362C310.474,428.093,308.247,426.361,307.521,425.397z"/>
				</g>
				<path style="fill:#F14757;" d="M231.718,179.488c1.053-3.619,8.6-12.385,8.6-12.385s10.549,6.451,15.409,15.875
					c4.86,9.423,34.453,42.972,36.193,46.09c1.741,3.118,3.658,17.463,3.658,17.463l-17.735-0.916c0,0-3.835-10.074-11.504-15.826
					c-7.669-5.752-26.102-20.244-31.505-32.171C229.43,185.69,229.163,188.268,231.718,179.488z"/>
				<path style="fill:#FEC1B2;" d="M196.025,136.26c0,0,0.189,1.507-0.378,6.831c-0.567,5.324-3.022,8.157-4.344,9.857
					c-1.322,1.7-10.197,6.043-12.275,7.176c0,0,20.401,26.376,34.912,25.784c27.762-1.133,13.434-25.406,13.434-25.406
					s-9.077-3.88-12.275-6.61c-1.903-1.624-2.833-10.801-2.833-10.801L196.025,136.26z"/>
				<path style="fill:#DB9786;" d="M195.417,144.624c6.258,7.256,14.637,10.44,23.679,11.861c-1.587-0.878-3.05-1.785-3.996-2.593
					c-1.903-1.624-2.833-10.801-2.833-10.801l-16.242-6.831c0,0,0.189,1.507-0.378,6.831
					C195.59,143.63,195.509,144.136,195.417,144.624z"/>
				<path style="fill:#FFFFFF;" d="M215.099,153.893c0,0,6.566,14.886-3.313,16.53c-15.701,2.613-20.483-17.474-20.483-17.474
					l-17.311,8.912l23.099,35.757l34.627-18.13l-0.648-17.299L215.099,153.893z"/>
				<g>
					<path style="fill:#2E6182;" d="M244,274.103c0,0,40.395,30.361,44.361,39.427c3.966,9.065,16.386,109.984,16.386,109.984
						s-5.301,3.492-12.457,4.665c-1.571,0.258-7.156-0.117-7.156-0.117s-10.963-38.564-16.763-55.229
						c-5.8-16.665-10.819-45.03-10.819-45.03s-23.86-10.043-33.973-12.475c-41.049-9.873-32.637-35.559-32.07-51.989L244,274.103z"
						/>
				</g>
				<g>
					<path style="fill:#184867;" d="M250.045,434.488c3.117-0.553,6.854,2.294,7.69,3.262c0.836,0.968,2.864,4.175-3.271,5.68
						c-7.611,1.868-24.025,0.202-35.354,0c-4.337-0.077-5.857-2.144-5.189-4.437c0.668-2.293,0.214-5.761,1.385-5.94
						C216.477,432.876,250.045,434.488,250.045,434.488z"/>
					<path style="fill:#133A50;" d="M237.085,425.397c-0.662-0.878-4.343-4.263-5.778-4.109c-9.374,1.007-5.551,3.301-8.145,3.958
						c-3.957,1.002-5.256,0.367-5.759-0.816c0,0-1.766-0.29-2.082,1.206c-0.316,1.496,0.155,5.684-0.489,8.444
						c-0.644,2.759,2.846,3.244,7.764,3.297c4.918,0.053,11.45,2.306,20.198,1.974c10.122-0.385,15.071,0.34,15.524-0.793
						c0.455-1.138-3.571-2.751-11.725-7.348C241.412,428.289,237.811,426.361,237.085,425.397z"/>
				</g>
				<path style="fill:#346E94;" d="M212.996,278.846c0,0,42.18,21.522,39.155,42.701c-1.399,9.795-15.066,103.85-15.066,103.85
					s-4.32,2.979-10.557,2.83c-3.157-0.075-10.691,0.148-10.691,0.148s-3.025-39.923-3.544-57.561
					c-0.554-18.821-0.825-47.211-0.825-47.211s-23.292-3.379-32.468-8.276c-15.925-8.498-11.927-20.052-11.361-36.482H212.996z"/>
				<path style="fill:#FA6A71;" d="M244.646,241.872c0-8.876-4.328-74.77-4.328-74.77l-20.223-10.745c0,0,9.02,19.731-6.155,26.152
					c-21.876,0-26.707-27.698-26.707-27.698l-26.816,13.22c0,0,9.443,15.486,10.198,24.173c0.755,8.687-6.798,32.483-6.043,50.235
					c0.755,17.753,2.933,47.528,2.933,47.528c38.831,0,74.929-6.674,80.705-13.958C248.212,276.009,244.646,250.749,244.646,241.872
					z"/>
				<path style="fill:#FEC1B2;" d="M229.644,107.57c0.765,4.56-0.07,14.628,0.835,21.503c0.906,6.874-1.005,12.845-4.41,17.288
					c-3.405,4.442-9.995,5.874-13.871,4.843c-3.876-1.031-11.628-2.077-18.411-14.056c-6.783-11.979-6.396-23.956-6.396-23.956
					l19.962-9.245L229.644,107.57z"/>
				<path style="fill:#282C3B;" d="M236.655,109.073c-1.375,2.553-4.374,3.129-8.249,3.732c-6.958,1.082-16.658,0.077-19.361-0.362
					c-5.417-0.879-9.444-3.617-9.444-3.617s4.142,6.722,1.872,12.5c-1.732,4.41-2.389,7.746-2.389,7.746s-0.84-5.213-4.328-6.555
					c-3.488-1.342-3.833,5.081-1.895,9.161c1.938,4.08,3.629,5.276,3.629,5.276s-0.726,3.405-1.114,7.438
					c0,0-5.271-11.206-8.76-15.32c-3.489-4.114-6.116-13.35-2.581-20.028c3.452-6.52,7.055-5.471,7.055-5.471
					s-0.19-7.798,11.313-7.868c12.052-0.074,23.842,3.351,28.752,11.207C232.601,109.225,236.655,109.073,236.655,109.073z"/>
				<path style="fill:#FFFFFF;" d="M212.468,125.545c0,0,2.174-1.567,4.295-1.054c2.121,0.514,2.534,1.625,2.534,1.625
					s-1.339,1.988-4.129,1.239C213.04,126.784,212.468,125.545,212.468,125.545z"/>
				<path style="fill:#FFFFFF;" d="M223.82,125.545c0,0,2.195-1.648,4.295-1.054c1.541,0.436,1.798,1.267,1.798,1.267
					s-0.603,2.346-3.393,1.597C224.391,126.784,223.82,125.545,223.82,125.545z"/>
				<path style="fill:#222C2D;" d="M216.92,120.015c1.504,0.224,1.315,1.652-0.054,1.529c-1.369-0.123-3.319,0.152-4.952,0.637
					c-1.633,0.485-0.476-0.88,1-1.469C214.388,120.123,215.392,119.787,216.92,120.015z"/>
				<path style="fill:#222C2D;" d="M226.2,120.134c-1.45,0.457-1.041,1.837,0.293,1.502c1.333-0.336,3.302-0.369,4.991-0.146
					c1.689,0.223,0.333-0.943-1.217-1.294C228.717,119.844,227.673,119.67,226.2,120.134z"/>
				<path style="fill:#282C3B;" d="M213.428,136.867c0,0,0.303,1.553,1.31,2.96c0.885,1.249,2.341,2.401,4.645,2.268
					c0.267-0.012,0.521-0.048,0.752-0.109c2.959-0.716,3.299-4.536,3.299-4.536S219.335,139.486,213.428,136.867z"/>
				<g>
					
						<path style="fill:none;stroke:#222C2D;stroke-width:0.5;stroke-linecap:round;stroke-linejoin:round;stroke-miterlimit:10;" d="
						M233.215,122.635H222.45l1.713,5.26c0.426,1.309,1.568,2.259,2.935,2.419c0.698,0.082,1.504,0.114,2.344,0.025
						c1.629-0.174,2.934-1.434,3.152-3.057L233.215,122.635z"/>
					
						<path style="fill:none;stroke:#222C2D;stroke-width:0.5;stroke-linecap:round;stroke-linejoin:round;stroke-miterlimit:10;" d="
						M207.423,122.635h12.765l-1.713,5.26c-0.426,1.309-1.568,2.259-2.935,2.419c-0.698,0.082-3.504,0.114-4.344,0.025
						c-1.629-0.174-2.935-1.434-3.152-3.057L207.423,122.635z"/>
					
						<line style="fill:none;stroke:#222C2D;stroke-width:0.5;stroke-linecap:round;stroke-linejoin:round;stroke-miterlimit:10;" x1="222.45" y1="122.635" x2="220.188" y2="122.635"/>
				</g>
				
					<path style="fill:#FEC1B2;stroke:#B07474;stroke-width:0.5;stroke-linecap:round;stroke-linejoin:round;stroke-miterlimit:10;" d="
					M220.741,126.967c2.932,4.479,4.505,5.9,4.098,7.575c-0.197,0.811-1.704,1.656-1.704,1.656"/>
				<path style="fill:#FFFFFF;" d="M223.433,137.449c0,0-0.301,1.229-2.974,1.619c-2.674,0.39-6.306-0.702-7.03-2.206
					C213.429,136.863,218.955,139.261,223.433,137.449z"/>
				<path style="fill:#B07474;" d="M214.738,139.826c0.885,1.249,2.341,2.401,4.645,2.268c0.267-0.012,0.521-0.048,0.752-0.109
					c-1.225-1.346-3.02-2.183-4.851-2.183C215.102,139.802,214.92,139.802,214.738,139.826z"/>
				<g>
					<line style="fill:none;stroke:#FFFFFF;stroke-miterlimit:10;" x1="192.763" y1="117.68" x2="193.659" y2="111.153"/>
					<line style="fill:none;stroke:#FFFFFF;stroke-miterlimit:10;" x1="197.412" y1="112.452" x2="196.309" y2="119.363"/>
					<path style="fill:#F4F8F4;" d="M188.187,126.754c0,4.209,4.368,9.434,4.368,9.434h4.159c3.65,0,6.608-4.224,6.608-9.434
						c0-5.21-2.958-9.434-6.608-9.434c-0.912,0-4.159,0-4.159,0C190.183,118.752,188.187,122.846,188.187,126.754z"/>
					<ellipse style="fill:#A3B4C8;" cx="192.555" cy="126.754" rx="6.608" ry="9.434"/>
					<path style="fill:#F4F8F4;" d="M186.497,126.524c0,4.475,2.541,8.103,5.676,8.103c3.135,0,5.676-3.628,5.676-8.103
						c0-4.475-2.541-8.103-5.676-8.103C189.038,118.42,186.497,122.048,186.497,126.524z"/>
					<g>
						<ellipse style="fill:#FFFFFF;" cx="191.084" cy="126.087" rx="4.183" ry="5.774"/>
					</g>
					<path style="fill:#A3B4C8;" d="M221.902,99.18c0,0-14.881-2.607-18.76,2.805c-3.672,5.123-4.4,11.003-4.4,11.003l-5.852-1.658
						l-0.918-0.701c0,0,2.968-6.207,4.901-9.392c3.369-5.553,8.065-5.169,8.065-5.169s14.978,1.031,17.347,2.192L221.902,99.18z"/>
					<path style="fill:#F4F8F4;" d="M222.285,98.258c0,0-9.09-0.955-11.857-0.809c-2.812,0.148-5.896,0.959-7.851,3.687
						c-3.672,5.123-4.835,10.956-4.835,10.956l-5.769-1.464c0,0,2.013-6.698,3.781-9.978c2.206-4.093,7.695-5.44,10.666-5.277
						C210.445,95.593,220.923,96.414,222.285,98.258z"/>
				</g>
				<path style="fill:#222C2D;" d="M212.468,125.545c0,0,0.746-1.177,3.256-1.405c2.51-0.228,3.572,1.977,3.572,1.977
					s-1.671-1.596-3.382-1.558C214.203,124.597,212.468,125.545,212.468,125.545z"/>
				<path style="fill:#222C2D;" d="M223.815,125.547c0,0,1.192-1.116,3.434-1.2c2.242-0.085,2.664,1.412,2.664,1.412
					s-0.449-0.899-2.632-0.931C224.906,124.793,223.815,125.547,223.815,125.547z"/>
				<path style="fill:#222C2D;" d="M215.515,124.458c-0.849,1.429-0.228,2.88,0.742,3.151c0.97,0.272,2.168-0.109,2.339-1.521
					c0.171-1.413-1.605-1.654-1.605-1.654L215.515,124.458z"/>
				<path style="fill:#222C2D;" d="M226.551,124.514c-0.456,1.073-0.228,2.707,0.742,2.963c0.97,0.255,2.168-0.102,2.339-1.43
					c0.171-1.328-1.605-1.555-1.605-1.555L226.551,124.514z"/>
			</g>
			<g>
				<path style="fill:#F8C9A5;" d="M210.494,246.595l2.155-6.871c0,0,17.864,5.738,22.774,6.871c4.91,1.133,12.789,4.91,12.789,4.91
					h-31.296L210.494,246.595z"/>
				<path style="fill:#F14757;" d="M218.804,241.307l-1.889,10.198h-83.851c0,0-2.644-3.4,5.288-25.684
					c7.932-22.285,14.353-55.146,20.774-57.79c6.421-2.644,17.707,11.331,16.596,23.04c-1.111,11.709-11.686,40.038-11.686,40.038
					S196.897,235.264,218.804,241.307z"/>
			</g>
			<g>
				<polygon style="fill:#A6AEBA;" points="246.949,248.443 263.591,248.443 280.232,190.216 267.579,190.216 				"/>
				<polygon style="fill:#D2DCEB;" points="251.726,248.443 316.675,248.443 333.316,190.216 268.367,190.216 				"/>
				
					<rect x="242.171" y="247.123" transform="matrix(-1 -1.224647e-16 1.224647e-16 -1 558.8464 498.5893)" style="fill:#D2DCEB;" width="74.504" height="4.344"/>
				
					<rect x="204.919" y="247.123" transform="matrix(-1 -1.224647e-16 1.224647e-16 -1 447.0899 498.5893)" style="fill:#A6AEBA;" width="37.252" height="4.344"/>
				<path style="fill:#F5FAFF;" d="M290.637,217.053c-1.461,3.464-0.433,7.206,2.297,8.357c2.729,1.151,6.127-0.724,7.588-4.189
					c1.461-3.464,0.433-7.206-2.297-8.357C295.495,211.713,292.098,213.588,290.637,217.053z"/>
			</g>
		</g>
		<path style="fill:#2E353D;" d="M601.134,144.484c-0.586-1.625-1.099-3.481-1.567-5.473c-2.244-9.562-0.434-21.533-6.766-27.303
			c-0.046-0.042-0.065-0.113-0.098-0.165c-4.218-6.807-7.947-4.375-7.947-4.375s-10.707-4.57-21.411-1.095
			c-8.563,2.78-11.128,11.407-10.158,28.074c0.52,8.937-3.325,16.759-3.458,22.319c-0.166,6.968,7.756,8.375,8.958,8.295
			c3.728-0.249,5.121,2.436,9.027,0.461c3.906-1.974,7.301-3.336,14.291-3.057c7.004,0.291,2.165-0.061,5.295,0.125
			c2.547,0.138,4.244,7.404,7.281,6.725C604.985,166.688,603.4,150.763,601.134,144.484z"/>
		<g>
			<path style="fill:#FEC1B2;" d="M586.296,131.335c0,0,4.192-1.208,4.366,2.743c0.145,3.293-1.437,4.076-3.682,7.001
				c-1.523,1.984-3.592,0.981-3.592,0.981L586.296,131.335z"/>
		</g>
		<path style="fill:#79A0D4;" d="M592.068,153.441c-1.438-0.39-4.208-0.469-6.175-0.695c-1.967-0.226-3.807,0.646-3.807,0.646
			l-0.315-2.795c0,0,5.933,0.184,9.46,0.808c3.527,0.624,5.608,2.145,6.917,4.904c1.308,2.759-0.2,4.644-0.2,4.644l-4.86-2.988
			L592.068,153.441z"/>
		<path style="fill:#79A0D4;" d="M560.555,154.548c1.491-1.55,4.337-1.931,5.443-1.577l3.304-1.357c0,0-5.584-0.483-7.701-0.478
			c-2.117,0.005-5.634,2.036-6.164,3.695s1.954,2.525,1.954,2.525L560.555,154.548z"/>
		<path style="fill:#FEC1B2;" d="M601.995,212.861l1.356-48.091c0,0-17.477-5.57-18.463-6.606
			c-4.836-5.078-1.717-25.011-1.717-25.011l-14.789-0.327c0,0,1.003,17.94-4.497,25c-1.316,1.689-12.026,3.218-12.026,3.218
			l-8.264,26.679l4.163,25.083L601.995,212.861z"/>
		<path style="fill:#DB9786;" d="M564.364,157.156c6.44-0.553,12.669-2.042,18.168-5.397c-1.061-7.731,0.638-18.606,0.638-18.606
			l-14.789-0.327C568.382,132.826,569.325,149.698,564.364,157.156z"/>
		<path style="fill:#557FB6;" d="M559.124,157.876c-0.692,4.657,4.371,11.887,7.052,12.843c2.681,0.957,9.566-2.518,12.914-5.828
			c3.348-3.311,9.187-6.446,9.187-6.446s17.795,2.205,21.76,7.554s1.503,18.224,1.592,22.931c0.044,2.354-3.99,20.782-8.034,38.623
			c-4.045,17.84,1.692,55.998,1.692,55.998s-37.308-3.93-49.796-3.935c-4.396-0.001-13.206,2.173-17.528,1.373
			c-1.891-0.35-6.944-3.307-6.944-3.307s2.1-35.116,2.648-53.179c0,0-0.385-13.261,1.12-25.758
			c1.339-11.113,2.911-13.518,6.377-22.143c2.603-6.475,8.059-14.728,8.059-14.728C557.399,158.763,559.124,157.876,559.124,157.876
			z"/>
		<path style="fill:#FEC1B2;" d="M583.441,146.469c-5.331,6.052-7.979,7.898-14.018,9.133c-0.911,0.186-2.426,0.183-4.021-0.357
			c-5.411-1.835-8.432-9.654-8.796-14.088c-0.231-2.818,0.303-4.814,0.503-9.056c0.047-1.018-0.416-2.529-0.356-3.555
			c0.191-3.244,0.958-6.717,1.394-9.172c0.89-5,4.761-7.527,8.726-8.383c10.791-2.331,22.313,8.125,21.972,11.666
			c-0.324,3.337,0.749,6.713,0.14,11.059C588.526,136.99,586.206,143.33,583.441,146.469z"/>
		<path style="fill:#2E353D;" d="M562.026,112.236c0,0-7.175,10.704-7.634,13.788c0,0-2.9-2.867-1.755-7.71
			c2.13-9.006,7.458-10.484,7.458-10.484L562.026,112.236z"/>
		<path style="fill:#2E353D;" d="M591.123,119.778c0,0-0.518,11.244-1.831,11.713c-3.66,1.307-8.457-4.964-16.268-6.772
			c-8.015-1.855-7.877-0.622-7.877-0.622s-0.631-4.933,1.202-8.802c0,0-3.487,4.736-3.367,8.848c0,0-2.888-0.782-8.904,2.914
			c0,0-2.426-17.041,13.308-19.014C583.12,106.071,589.772,116.618,591.123,119.778z"/>
		<g>
			<line style="fill:none;stroke:#FFFFFF;stroke-miterlimit:10;" x1="589.359" y1="129.107" x2="589.81" y2="122.553"/>
			<line style="fill:none;stroke:#FFFFFF;stroke-miterlimit:10;" x1="586.529" y1="123.271" x2="586.176" y2="130.234"/>
			<path style="fill:#F4F8F4;" d="M591.435,138.714c-0.76,4.14-5.25,8.628-5.25,8.628l-3.376-0.62
				c-2.963-0.544-4.602-5.139-3.661-10.264c0.941-5.125,4.106-8.838,7.068-8.294c0.741,0.136,3.376,0.62,3.376,0.62
				C591.26,130.546,592.141,134.87,591.435,138.714z"/>
			<path style="fill:#A3B4C8;" d="M593.254,139.048c-0.941,5.125-4.105,8.838-7.068,8.294c-2.963-0.544-4.602-5.139-3.661-10.264
				c0.941-5.125,4.106-8.838,7.068-8.294C592.556,129.327,594.195,133.923,593.254,139.048z"/>
			<path style="fill:#F4F8F4;" d="M592.849,138.739c-0.808,4.402-3.526,7.591-6.071,7.124c-2.545-0.467-3.953-4.414-3.144-8.816
				c0.808-4.402,3.526-7.591,6.071-7.124C592.25,130.39,593.658,134.337,592.849,138.739z"/>
			<g>
				<path style="fill:#FFFFFF;" d="M592.6,138.249c-0.576,3.136-2.563,5.4-4.439,5.055c-1.876-0.344-2.929-3.166-2.353-6.302
					c0.576-3.136,2.563-5.4,4.439-5.055C592.122,132.291,593.175,135.113,592.6,138.249z"/>
			</g>
			<path style="fill:#A3B4C8;" d="M564.637,105.822c0,0,15.782-1.076,18.142,4.899c2.187,5.537,2.574,12.88,2.574,12.88l5.05-0.759
				l0.872-0.553c0,0-1.288-6.547-2.282-9.968c-1.733-5.964-5.614-6.286-5.614-6.286s-11.813-2.402-17.402-1.425L564.637,105.822z"/>
			<path style="fill:#F4F8F4;" d="M565.976,104.608c0,0,1.934-0.145,4.692,0.117c4.062,0.386,6.52,0.586,8.581,1.253
				c2.813,0.91,4.036,2.419,5.131,5.393c2.056,5.586,1.947,11.497,1.947,11.497l4.948-0.58c0,0-0.425-6.888-1.268-10.378
				c-1.052-4.354-4.837-6.018-7.706-6.78C579.082,104.276,567.414,102.998,565.976,104.608z"/>
		</g>
		<g>
			<path id="XMLID_37_" style="fill:#2E353D;" d="M571.142,126.837c0,0,0.924-0.92,1.554-1.07c1.764-0.42,3.127-0.12,4.509,0.272
				c1.365,0.387,2.24,1.509,2.878,2.546c0,0-1.58-1.369-2.864-1.653C575.719,126.6,574.019,126.513,571.142,126.837z"/>
			<path id="XMLID_12_" style="fill:#2E353D;" d="M564.611,126.261c0,0-0.503-1.115-0.957-1.414c-1.271-0.836-2.4-0.878-3.565-0.836
				c-1.15,0.042-2.091,0.915-2.829,1.762c0,0,1.547-0.94,2.61-0.902C561.112,124.915,562.452,125.246,564.611,126.261z"/>
			<g>
				<path style="fill:#FDAF99;" d="M558.763,132.978c0,0,1.253,0.801,3.025,0.682C561.788,133.66,559.87,135.671,558.763,132.978z"
					/>
				<path style="fill:#FDAF99;" d="M576.217,136.073c0,0-1.417,0.386-3.083-0.269C573.134,135.805,574.424,138.316,576.217,136.073z
					"/>
			</g>
			<path style="fill:#FFFFFF;" d="M577.207,131.428c0,0-2.196-1.427-4.31-0.916c-2.113,0.511-2.51,1.553-2.51,1.553
				s1.123,1.921,3.526,1.25C576.026,132.725,577.207,131.428,577.207,131.428z"/>
			<path style="fill:#FFFFFF;" d="M563.95,130.945c0,0-1.376-2.375-3.54-2.65c-1.588-0.201-2.15,0.463-2.15,0.463
				s-0.363,2.395,2.498,2.797C562.94,131.862,563.95,130.945,563.95,130.945z"/>
			
				<path style="fill:#FEC1B2;stroke:#B07474;stroke-width:0.5;stroke-linecap:round;stroke-linejoin:round;stroke-miterlimit:10;" d="
				M568.382,132.826c-3.429,4.111-5.155,5.341-4.945,7.051c0.102,0.828,1.502,1.842,1.502,1.842"/>
			<path style="fill:#222C2D;" d="M577.207,131.428c0,0-0.763-1.085-3.276-1.259c-2.513-0.174-3.544,1.896-3.544,1.896
				s1.648-1.513,3.359-1.504C575.459,130.571,577.207,131.428,577.207,131.428z"/>
			<path style="fill:#222C2D;" d="M563.954,130.949c0,0-0.661-1.493-2.691-2.448c-2.03-0.955-3.004,0.258-3.004,0.258
				s0.765-0.651,2.786,0.173C563.245,129.828,563.954,130.949,563.954,130.949z"/>
			<path style="fill:#222C2D;" d="M574.145,130.462c0.869,1.318,0.269,2.679-0.697,2.947c-0.966,0.268-2.169-0.068-2.36-1.381
				c-0.191-1.313,1.581-1.565,1.581-1.565L574.145,130.462z"/>
			<path style="fill:#222C2D;" d="M561.841,128.927c0.016,1.128-0.809,2.486-1.797,2.333c-0.989-0.153-1.957-0.938-1.615-2.181
				c0.342-1.243,2.062-0.749,2.062-0.749L561.841,128.927z"/>
		</g>
		<g>
			<path style="fill:#282C3B;" d="M570.318,143.404c0,0-0.41,1.362-1.422,2.533c-0.012,0.019-0.023,0.027-0.045,0.045
				c-0.902,1.003-2.09,1.438-4.107,1.124c-0.238-0.028-0.463-0.084-0.656-0.157c-0.048-0.016-0.097-0.031-0.143-0.067
				c-2.448-0.939-2.606-3.826-2.606-3.826S564.82,145.232,570.318,143.404z"/>
			<path style="fill:#FFFFFF;" d="M561.341,143.06c0,0,0.162,1.123,2.514,1.702c2.352,0.579,5.687-0.081,6.463-1.36
				C570.318,143.402,565.179,145.064,561.341,143.06z"/>
			<path style="fill:#EE6191;" d="M568.851,145.982c-0.902,1.003-2.09,1.438-4.107,1.124c-0.238-0.028-0.463-0.084-0.656-0.157
				c-0.048-0.016-0.097-0.031-0.143-0.067C565.508,145.815,567.144,145.683,568.851,145.982z"/>
		</g>
		<g>
			<path style="fill:#FEC1B2;" d="M551.418,240.648c0,0-9.505,2.868-11.903,2.713c-2.398-0.155-9.903-2.609-11.021-2.243
				c-1.118,0.366-8.995,7.083-9.937,8.117c-0.942,1.034-1.519,3.186-1.519,3.186l30.959,1.996c0,0,5.499-3.805,6.618-4.171
				C555.733,249.88,551.418,240.648,551.418,240.648z"/>
			<path style="fill:#79A0D4;" d="M610.036,166c4.484,1.594,9.655,39.589,11.036,48.669c1.381,9.08,2.294,16.725-0.495,20.76
				c-2.789,4.035-33.658,12.16-41.023,13.09c-7.365,0.93-17.249,1.698-17.249,1.698l-3.945-12.898c0,0,18.539-8.639,27.782-12.539
				c4.902-2.068,11.445-3.196,11.445-3.196s-6.112-14.162-7.728-19.604c-1.616-5.443-3.94-14.577-0.85-21.69
				C594.948,166.624,603.909,163.822,610.036,166z"/>
			<polygon style="fill:#557FB6;" points="549.153,240.66 558.36,237.319 562.305,250.218 552.891,252.421 			"/>
		</g>
		<path style="fill:#79A0D4;" d="M566.175,170.72c3.688-0.59,8.982-3.901,10.995-7.153c1.928-3.115,6.598-5.99,9.808-6.53
			c3.211-0.54,5.924-2.047,5.089-3.595c0,0,1.758-1.195,3.895,0.438c2.137,1.632,6.641,4.383,7.925,7.641
			c1.285,3.259-8.876-0.565-11.853-0.757s-8.519,6.512-12.72,7.922s-6.938,3.289-9.392,3.691
			C567.468,172.78,566.175,170.72,566.175,170.72z"/>
		<path style="fill:#79A0D4;" d="M566.175,170.72c-2.729-2.433-4.516-7.525-5.784-10.184c-1.268-2.659-0.792-4.939,0.164-5.988
			c0,0-1.642-2.105-3.469-1.335c-1.827,0.771-3.504,2.662-2.997,5.139c0.507,2.477,2.412,3.932,4.59,8.072
			c2.177,4.139,3.612,6.009,4.925,6.316C564.917,173.047,566.175,170.72,566.175,170.72z"/>
		<path style="fill:none;stroke:#FFFFFF;stroke-width:0.5;stroke-linecap:round;stroke-linejoin:round;stroke-miterlimit:10;" d="
			M572.563,163.126c-3.244,2.194-4.548,6.426-4.455,10.341c0.093,3.915,1.333,7.697,2.131,11.531
			c1.135,5.449,1.321,11.376-1.218,16.329"/>
		<path style="fill:none;stroke:#FFFFFF;stroke-width:0.5;stroke-linecap:round;stroke-linejoin:round;stroke-miterlimit:10;" d="
			M565.091,160.192c0.545,5.951-2.038,11.682-3.873,17.411c-1.836,5.729-2.864,12.084,0.536,17.476"/>
		<g>
			
				<rect x="68.84" y="250.279" transform="matrix(-1 -1.224647e-16 1.224647e-16 -1 750 510.2262)" style="fill:#B6C3D4;" width="612.321" height="9.669"/>
			<polygon style="fill:#133A50;" points="625.395,443.431 623.191,443.431 579,259.948 583.794,259.948 			"/>
			<polygon style="fill:#133A50;" points="669.277,443.431 667.074,443.431 622.883,259.948 627.676,259.948 			"/>
			<polygon style="fill:#133A50;" points="116.112,443.431 118.315,443.431 162.506,259.948 157.713,259.948 			"/>
			<polygon style="fill:#133A50;" points="72.229,443.431 74.433,443.431 118.624,259.948 113.83,259.948 			"/>
		</g>
		<g>
			<g>
				<path style="fill:#84BEBB;" d="M392.443,188.074c4.131-1.885,7.61-2.384,9.962-14.589c1.443-7.484,1.649-16.286,1.649-16.286
					s-12.781,12.457-13.779,20.887C389.278,186.514,392.443,188.074,392.443,188.074z"/>
				<path style="fill:none;stroke:#5D687B;stroke-width:0.25;stroke-miterlimit:10;" d="M397.602,171.712
					c0,0-3.859,7.719-5.159,16.362c-1.3,8.643,0.331,40.794,0.331,40.794"/>
				<path style="fill:#439C97;" d="M396.116,198.932c0,0-5.816-6.717,0.218-14.125c6.033-7.409,12.518-9.765,12.518-9.765
					s-0.537,11.578-4.083,18.2C401.223,199.864,396.116,198.932,396.116,198.932z"/>
				<path style="fill:none;stroke:#5D687B;stroke-width:0.25;stroke-miterlimit:10;" d="M391.703,221.108
					c0,0,2.016-13.268,4.413-22.175c1.535-5.704,8.103-17.74,8.103-17.74"/>
				<path style="fill:#84BEBB;" d="M368.334,178.2c0,0,6.731,8.709,9.987,11.376c5.874,4.813,10.081,2.612,8.616-2.625
					C384.979,179.95,368.334,178.2,368.334,178.2z"/>
				<path style="fill:none;stroke:#5D687B;stroke-width:0.25;stroke-miterlimit:10;" d="M375.675,182.212
					c2.735,1.975,17.586,6.006,19.698,43.752"/>
				<path style="fill:#84BEBB;" d="M416.737,194.513c0,0-6.731,8.709-9.987,11.376c-5.875,4.813-10.081,2.612-8.616-2.625
					C400.093,196.263,416.737,194.513,416.737,194.513z"/>
				<path style="fill:none;stroke:#5D687B;stroke-width:0.25;stroke-miterlimit:10;" d="M409.884,198.888
					c-2.735,1.975-14.719,5.934-15.861,25.815"/>
				<g>
					<path style="fill:#439C97;" d="M387.127,207.562c-3.216-0.659-5.789-0.495-9.004-8.242c-1.972-4.751-3.216-10.55-3.216-10.55
						s10.773,6.429,12.542,11.868C389.218,206.079,387.127,207.562,387.127,207.562z"/>
					<path style="fill:none;stroke:#5D687B;stroke-width:0.25;stroke-miterlimit:10;" d="M380.576,195.84
						c0,0,5.562,8.18,7.575,13.718c2.013,5.538,2.157,14.243,2.157,14.243"/>
				</g>
			</g>
			<rect x="384.036" y="220.808" style="fill:#D0E2F7;" width="17.754" height="29.678"/>
		</g>
		<line style="fill:none;stroke:#133A50;stroke-miterlimit:10;" x1="42.74" y1="444.373" x2="707.26" y2="444.373"/>
	</g>
</g>
</svg>
