<svg xmlns='http://www.w3.org/2000/svg' viewBox="15 0 105.83333 105.83333" height="750">
    <!-- <path id="contour" d="m 16.42941,63.860401 3.211178,1.15207 a 1.8936717,1.8936717 5.7451414 0 0 0.911081,0.09166 l 7.375676,-1.068909 a 2.1102585,2.1102585 159.15029 0 0 0.860631,-0.327778 l 1.21276,-0.801288 a 0.84628909,0.84628909 175.688 0 1 0.821894,-0.06197 l 1.536536,0.710933 a 2.6705867,2.6705867 14.809725 0 0 0.898413,0.237534 l 5.452802,0.45694 a 2.6697578,2.6697578 174.7675 0 0 0.925402,-0.08475 l 0.661085,-0.180296 a 2.7287849,2.7287849 154.93477 0 0 0.842307,-0.393943 l 0.404441,-0.281882 a 6.3483429,6.3483429 140.874 0 0 0.730053,-0.593848 l 3.850029,-3.637824 a 1.3724424,1.3724424 151.21434 0 1 0.699262,-0.384194 0.58370614,0.58370614 76.767768 0 1 0.523298,0.717325 0.4882163,0.4882163 25.106864 0 0 0.436394,0.204486 l 2.743985,-3.887314 a 37.887916,37.887916 122.48123 0 0 1.942706,-3.051645 l 1.435799,-2.512647 a 24.35396,24.35396 115.49248 0 0 1.554451,-3.260077 L 59.835185,35.6454 a 66.66953,66.66953 111.64557 0 1 0.348079,-0.877109 l 0.616329,-1.521561 a 26.198634,26.198634 116.83323 0 1 1.971804,-3.897889 12.808176,12.808176 131.38092 0 1 2.240901,-2.54351 l 0.950565,-0.891889 a 0.68992912,0.68992912 171.19205 0 1 0.769752,-0.119273 1.040451,1.040451 50.107632 0 1 0.535076,0.640117 l 2.246612,7.272422 a 1.9042623,1.9042623 58.916464 0 0 0.472907,0.784457 0.57014295,0.57014295 1.5015269 0 0 0.632819,0.01659 1.2611179,1.2611179 137.36086 0 0 0.435201,-0.400737" /> -->
</svg>